# xmcd CD database file
#
# Track frame offsets:
#	150
#	16030
#	32449
#	47443
#	58858
#	79348
#	93328
#	113470
#	128110
#	146644
#	163801
#	176044
#
# Disc length: 2599 seconds
#
# Revision: 0
# Processed by: cddbd v1.5.2PL0 Copyright (c) Steve Scherf et al.
# Submitted via: CDex 1.70beta2
#
DISCID=930a250c
DTITLE=U.Pasanen Band - U Turn
DYEAR=2008
DGENRE=Blues
TTITLE0=Mean To Me
TTITLE1=Humbled And Fooled
TTITLE2=Guilty
TTITLE3=U Turn
TTITLE4=Don't Get Too Excited
TTITLE5=Gonna Make You Mine
TTITLE6=Sky Can Fall
TTITLE7=Couple Of Coins
TTITLE8=White Lady Blues
TTITLE9=Without You
TTITLE10=Nobody Knows You
TTITLE11=My Old Man
EXTD=YEAR: 2008
EXTT0=
EXTT1=
EXTT2=
EXTT3=
EXTT4=
EXTT5=
EXTT6=
EXTT7=
EXTT8=
EXTT9=
EXTT10=
EXTT11=
PLAYORDER=
